<mxfile host="app.diagrams.net" modified="2021-03-25T13:48:12.174Z" agent="5.0 (Windows NT 10.0; Win64; x64) AppleWebKit/537.36 (KHTML, like Gecko) Chrome/70.0.3538.102 Safari/537.36" etag="mw2cJUIirs00J1a0R1Hf" version="14.5.1" type="github">
  <diagram name="BOKE_FISH" id="b5b7bab2-c9e2-2cf4-8b2a-24fd1a2a6d21">
    <mxGraphModel dx="2651" dy="1021" grid="1" gridSize="10" guides="1" tooltips="1" connect="1" arrows="1" fold="1" page="1" pageScale="1" pageWidth="827" pageHeight="1169" background="#ffffff" math="0" shadow="0">
      <root>
        <mxCell id="0" />
        <mxCell id="1" parent="0" />
        <mxCell id="fzn0tMe7gDzVCb7VW257-3" style="edgeStyle=orthogonalEdgeStyle;rounded=0;orthogonalLoop=1;jettySize=auto;html=1;" edge="1" parent="1" source="fzn0tMe7gDzVCb7VW257-1" target="fzn0tMe7gDzVCb7VW257-4">
          <mxGeometry relative="1" as="geometry">
            <mxPoint x="450" y="205" as="targetPoint" />
          </mxGeometry>
        </mxCell>
        <mxCell id="fzn0tMe7gDzVCb7VW257-1" value="Fish_lobby" style="rounded=1;whiteSpace=wrap;html=1;" vertex="1" parent="1">
          <mxGeometry x="180" y="160" width="180" height="90" as="geometry" />
        </mxCell>
        <mxCell id="fzn0tMe7gDzVCb7VW257-5" style="edgeStyle=orthogonalEdgeStyle;rounded=0;orthogonalLoop=1;jettySize=auto;html=1;" edge="1" parent="1" source="fzn0tMe7gDzVCb7VW257-4" target="fzn0tMe7gDzVCb7VW257-6">
          <mxGeometry relative="1" as="geometry">
            <mxPoint x="480" y="130" as="targetPoint" />
          </mxGeometry>
        </mxCell>
        <mxCell id="fzn0tMe7gDzVCb7VW257-4" value="LobbyUI" style="rounded=1;whiteSpace=wrap;html=1;" vertex="1" parent="1">
          <mxGeometry x="420" y="175" width="120" height="60" as="geometry" />
        </mxCell>
        <mxCell id="fzn0tMe7gDzVCb7VW257-6" value="BaseUI" style="rounded=1;whiteSpace=wrap;html=1;" vertex="1" parent="1">
          <mxGeometry x="420" y="80" width="120" height="60" as="geometry" />
        </mxCell>
        <mxCell id="fzn0tMe7gDzVCb7VW257-7" value="" style="endArrow=none;dashed=1;html=1;dashPattern=1 3;strokeWidth=2;exitX=1;exitY=0.5;exitDx=0;exitDy=0;" edge="1" parent="1" source="fzn0tMe7gDzVCb7VW257-6">
          <mxGeometry width="50" height="50" relative="1" as="geometry">
            <mxPoint x="760" y="270" as="sourcePoint" />
            <mxPoint x="590" y="110" as="targetPoint" />
          </mxGeometry>
        </mxCell>
        <mxCell id="fzn0tMe7gDzVCb7VW257-10" value="IClearInterface/eui.UIComponent&lt;br&gt;&lt;br&gt;Deep&lt;br&gt;isLoadComplete" style="ellipse;whiteSpace=wrap;html=1;" vertex="1" parent="1">
          <mxGeometry x="590" y="70" width="300" height="80" as="geometry" />
        </mxCell>
        <mxCell id="fzn0tMe7gDzVCb7VW257-11" value="" style="endArrow=classic;startArrow=classic;html=1;exitX=1;exitY=0.5;exitDx=0;exitDy=0;" edge="1" parent="1" source="fzn0tMe7gDzVCb7VW257-4" target="fzn0tMe7gDzVCb7VW257-12">
          <mxGeometry width="50" height="50" relative="1" as="geometry">
            <mxPoint x="750" y="320" as="sourcePoint" />
            <mxPoint x="740" y="205" as="targetPoint" />
            <Array as="points">
              <mxPoint x="620" y="250" />
            </Array>
          </mxGeometry>
        </mxCell>
        <mxCell id="fzn0tMe7gDzVCb7VW257-12" value="GameLayer&lt;br&gt;&lt;br&gt;&amp;lt;= 2000: LAYER_BASE&lt;br&gt;&amp;lt;= 4000: LAYER_GAME&lt;br&gt;&amp;lt;= 6000: LAYER_LOW_UI&lt;br&gt;&amp;lt;= 7000: LAYER_UI&lt;br&gt;&amp;lt;= 10000: LAYER_WIN&lt;br&gt;&lt;br&gt;layerBase&lt;br&gt;layerGame&lt;br&gt;layerLowUI&lt;br&gt;layerEffect&lt;br&gt;layerUI&lt;br&gt;layerWin&lt;br&gt;layerLoading&lt;br&gt;layerMsgBox" style="shape=hexagon;perimeter=hexagonPerimeter2;whiteSpace=wrap;html=1;fixedSize=1;" vertex="1" parent="1">
          <mxGeometry x="870" y="175" width="240" height="295" as="geometry" />
        </mxCell>
        <mxCell id="fzn0tMe7gDzVCb7VW257-15" style="edgeStyle=orthogonalEdgeStyle;rounded=0;orthogonalLoop=1;jettySize=auto;html=1;entryX=0.25;entryY=1;entryDx=0;entryDy=0;" edge="1" parent="1" source="fzn0tMe7gDzVCb7VW257-13" target="fzn0tMe7gDzVCb7VW257-1">
          <mxGeometry relative="1" as="geometry" />
        </mxCell>
        <mxCell id="fzn0tMe7gDzVCb7VW257-13" value="Fish_LobbyRes" style="rounded=0;whiteSpace=wrap;html=1;" vertex="1" parent="1">
          <mxGeometry x="80" y="320" width="120" height="60" as="geometry" />
        </mxCell>
        <mxCell id="fzn0tMe7gDzVCb7VW257-16" style="edgeStyle=orthogonalEdgeStyle;rounded=0;orthogonalLoop=1;jettySize=auto;html=1;entryX=0.569;entryY=1.003;entryDx=0;entryDy=0;entryPerimeter=0;" edge="1" parent="1" source="fzn0tMe7gDzVCb7VW257-14" target="fzn0tMe7gDzVCb7VW257-1">
          <mxGeometry relative="1" as="geometry">
            <Array as="points">
              <mxPoint x="354" y="285" />
              <mxPoint x="282" y="285" />
            </Array>
          </mxGeometry>
        </mxCell>
        <mxCell id="fzn0tMe7gDzVCb7VW257-14" value="Fish_LobbyReq" style="rounded=0;whiteSpace=wrap;html=1;" vertex="1" parent="1">
          <mxGeometry x="294" y="320" width="120" height="60" as="geometry" />
        </mxCell>
        <mxCell id="fzn0tMe7gDzVCb7VW257-18" style="edgeStyle=orthogonalEdgeStyle;rounded=0;orthogonalLoop=1;jettySize=auto;html=1;entryX=0.5;entryY=1;entryDx=0;entryDy=0;" edge="1" parent="1" source="fzn0tMe7gDzVCb7VW257-17" target="fzn0tMe7gDzVCb7VW257-14">
          <mxGeometry relative="1" as="geometry" />
        </mxCell>
        <mxCell id="fzn0tMe7gDzVCb7VW257-17" value="TcpMsgHead" style="rounded=1;whiteSpace=wrap;html=1;" vertex="1" parent="1">
          <mxGeometry x="294" y="450" width="120" height="60" as="geometry" />
        </mxCell>
        <mxCell id="fzn0tMe7gDzVCb7VW257-20" style="edgeStyle=orthogonalEdgeStyle;rounded=0;orthogonalLoop=1;jettySize=auto;html=1;entryX=0.5;entryY=1;entryDx=0;entryDy=0;" edge="1" parent="1" source="fzn0tMe7gDzVCb7VW257-19" target="fzn0tMe7gDzVCb7VW257-13">
          <mxGeometry relative="1" as="geometry" />
        </mxCell>
        <mxCell id="fzn0tMe7gDzVCb7VW257-19" value="HttpBaseMsg" style="rounded=1;whiteSpace=wrap;html=1;" vertex="1" parent="1">
          <mxGeometry x="80" y="450" width="120" height="60" as="geometry" />
        </mxCell>
        <mxCell id="fzn0tMe7gDzVCb7VW257-21" value="Fish_LobbyData" style="rounded=1;whiteSpace=wrap;html=1;" vertex="1" parent="1">
          <mxGeometry x="210" y="50" width="120" height="60" as="geometry" />
        </mxCell>
        <mxCell id="fzn0tMe7gDzVCb7VW257-23" value="" style="endArrow=classic;html=1;exitX=0.5;exitY=1;exitDx=0;exitDy=0;entryX=0.5;entryY=0;entryDx=0;entryDy=0;" edge="1" parent="1" source="fzn0tMe7gDzVCb7VW257-21" target="fzn0tMe7gDzVCb7VW257-1">
          <mxGeometry width="50" height="50" relative="1" as="geometry">
            <mxPoint x="750" y="320" as="sourcePoint" />
            <mxPoint x="800" y="270" as="targetPoint" />
          </mxGeometry>
        </mxCell>
        <mxCell id="fzn0tMe7gDzVCb7VW257-31" style="edgeStyle=orthogonalEdgeStyle;rounded=0;orthogonalLoop=1;jettySize=auto;html=1;" edge="1" parent="1" source="fzn0tMe7gDzVCb7VW257-30" target="fzn0tMe7gDzVCb7VW257-14">
          <mxGeometry relative="1" as="geometry" />
        </mxCell>
        <mxCell id="fzn0tMe7gDzVCb7VW257-30" value="tcpSocket&lt;br&gt;发送指令" style="rounded=1;whiteSpace=wrap;html=1;" vertex="1" parent="1">
          <mxGeometry x="500" y="320" width="120" height="60" as="geometry" />
        </mxCell>
        <mxCell id="fzn0tMe7gDzVCb7VW257-35" value="" style="endArrow=classic;html=1;exitX=0.75;exitY=0;exitDx=0;exitDy=0;entryX=0.5;entryY=1;entryDx=0;entryDy=0;" edge="1" parent="1" target="fzn0tMe7gDzVCb7VW257-17">
          <mxGeometry width="50" height="50" relative="1" as="geometry">
            <mxPoint x="280" y="570" as="sourcePoint" />
            <mxPoint x="800" y="390" as="targetPoint" />
          </mxGeometry>
        </mxCell>
        <mxCell id="fzn0tMe7gDzVCb7VW257-36" value="" style="endArrow=classic;html=1;exitX=0.25;exitY=0;exitDx=0;exitDy=0;entryX=0.5;entryY=1;entryDx=0;entryDy=0;" edge="1" parent="1" target="fzn0tMe7gDzVCb7VW257-19">
          <mxGeometry width="50" height="50" relative="1" as="geometry">
            <mxPoint x="220" y="570" as="sourcePoint" />
            <mxPoint x="364" y="520" as="targetPoint" />
          </mxGeometry>
        </mxCell>
        <mxCell id="fzn0tMe7gDzVCb7VW257-37" value="ActionHandler" style="rounded=1;whiteSpace=wrap;html=1;" vertex="1" parent="1">
          <mxGeometry x="190" y="570" width="120" height="70" as="geometry" />
        </mxCell>
        <mxCell id="fzn0tMe7gDzVCb7VW257-40" value="MsgClassSerializer&lt;br&gt;消息序列化类" style="rounded=0;whiteSpace=wrap;html=1;" vertex="1" parent="1">
          <mxGeometry x="500" y="575" width="120" height="60" as="geometry" />
        </mxCell>
        <mxCell id="fzn0tMe7gDzVCb7VW257-41" value="" style="endArrow=classic;startArrow=classic;html=1;exitX=1;exitY=0.5;exitDx=0;exitDy=0;entryX=0;entryY=0.5;entryDx=0;entryDy=0;" edge="1" parent="1" source="fzn0tMe7gDzVCb7VW257-37" target="fzn0tMe7gDzVCb7VW257-40">
          <mxGeometry width="50" height="50" relative="1" as="geometry">
            <mxPoint x="750" y="480" as="sourcePoint" />
            <mxPoint x="800" y="430" as="targetPoint" />
          </mxGeometry>
        </mxCell>
        <mxCell id="fzn0tMe7gDzVCb7VW257-42" value="" style="endArrow=classic;startArrow=classic;html=1;exitX=0.5;exitY=0;exitDx=0;exitDy=0;entryX=0.5;entryY=1;entryDx=0;entryDy=0;" edge="1" parent="1" source="fzn0tMe7gDzVCb7VW257-40" target="fzn0tMe7gDzVCb7VW257-30">
          <mxGeometry width="50" height="50" relative="1" as="geometry">
            <mxPoint x="750" y="480" as="sourcePoint" />
            <mxPoint x="800" y="430" as="targetPoint" />
          </mxGeometry>
        </mxCell>
        <mxCell id="fzn0tMe7gDzVCb7VW257-46" value="" style="curved=1;endArrow=classic;html=1;exitX=0;exitY=0.5;exitDx=0;exitDy=0;entryX=0;entryY=0.5;entryDx=0;entryDy=0;" edge="1" parent="1" source="fzn0tMe7gDzVCb7VW257-37" target="fzn0tMe7gDzVCb7VW257-1">
          <mxGeometry width="50" height="50" relative="1" as="geometry">
            <mxPoint x="750" y="480" as="sourcePoint" />
            <mxPoint x="800" y="430" as="targetPoint" />
            <Array as="points">
              <mxPoint x="-70" y="540" />
              <mxPoint x="70" y="490" />
              <mxPoint x="-130" y="400" />
              <mxPoint x="-50" y="210" />
            </Array>
          </mxGeometry>
        </mxCell>
      </root>
    </mxGraphModel>
  </diagram>
</mxfile>
